# Blender 3.3.1
# www.blender.org
mtllib slow.mtl
o CUPIC_ICEBERG
v 0.375393 33.074154 19.132769
v 1.974625 10.986170 19.615553
v 19.370552 19.233023 10.092159
v 20.652950 19.211813 -11.454758
v 1.280199 36.298481 -16.666130
v -0.913041 9.326321 -18.110262
v -17.437334 23.035572 -12.967268
v -18.599579 21.473358 11.531157
v 14.491920 44.444038 -5.021816
v -11.828047 48.805866 1.407046
v -12.184726 2.978355 -0.000003
v 10.143967 1.717148 -0.000003
v 7.851903 58.241501 1.421663
v -3.727957 61.247276 -0.349416
v 4.088244 42.391930 15.880501
v 12.725817 53.705803 6.083091
v -4.167976 40.495705 17.750034
v -5.102411 49.234016 9.940661
v 14.766704 32.874054 3.553147
v 16.459845 39.137486 -0.344463
v 7.742139 27.995970 18.247482
v 12.666828 24.468346 13.898027
v 17.588871 27.687138 -8.353235
v 16.183916 36.736023 -6.286106
v 21.133564 19.916105 4.232886
v 21.421976 20.569675 -3.113251
v 5.597651 38.843918 -16.251492
v 9.739167 43.889435 -10.490471
v 14.029405 26.085711 -15.000594
v 5.043067 29.752766 -15.603421
v -2.396386 39.325905 -13.857133
v -5.476329 54.078175 -6.598971
v -15.468379 27.469843 -7.823313
v -13.008617 33.394302 -5.772438
v -4.803459 32.560101 -15.815893
v -10.233721 26.273878 -13.424744
v -15.521871 27.290916 7.493701
v -10.933953 34.762833 4.618055
v -19.867201 21.608290 -3.935768
v -18.500042 21.551495 3.697500
v -5.697404 29.296522 15.651875
v -11.925520 24.975496 13.609041
v -5.089800 -3.603039 0.651401
v 2.558954 -0.378603 -0.000003
v -5.693051 2.556959 15.443979
v -10.644726 3.087626 7.105014
v 1.963640 4.330851 17.185801
v 8.642383 0.836443 7.653526
v 17.690010 12.093219 8.147039
v 16.208885 7.066429 2.398148
v 7.612101 11.828352 21.103321
v 13.694832 16.090792 14.839893
v 21.193697 15.780104 -8.540454
v 13.502975 5.803274 -0.760009
v 14.494096 16.255987 -15.598956
v 5.216115 13.699749 -19.214090
v 1.006636 6.830821 -11.373047
v 5.586162 2.081505 -7.177341
v -4.562019 7.515202 -11.504700
v -8.496721 4.817194 -6.460614
v -4.930164 15.507934 -18.651695
v -12.276817 18.911041 -16.944237
v -15.705709 16.038071 -7.160777
v -13.058901 9.899457 -3.433715
v -16.018633 15.295364 7.603441
v -15.917378 7.546469 5.408118
v -7.258548 12.553362 17.608112
v -13.142057 18.251991 18.760052
v -0.160445 25.058468 23.943247
v -0.213341 16.636589 22.475752
v 0.040405 27.930813 -15.463798
v 0.269350 18.942884 -23.247068
v 1.285708 58.288231 6.414572
v 14.191365 38.595016 9.914303
v 18.710226 27.592560 -1.986639
v 13.424286 31.548157 -10.285295
v 1.621221 47.814976 -12.960734
v -7.360925 34.625381 -10.375302
v -13.592546 26.558601 0.049238
v -8.949879 30.695007 10.795899
v -0.115936 1.083162 7.926981
v 12.128372 8.567024 20.229378
v 23.653801 12.107561 -0.470828
v 11.454300 3.895258 -11.652459
v -0.587182 3.940502 -6.975601
v -8.120376 13.410715 -7.955678
v -20.084255 15.237408 -0.037114
v -12.352986 9.970424 12.137649
v -11.783032 20.882143 21.885180
v 7.523091 20.270514 20.968969
v 8.660825 22.262320 -18.119425
v -7.332587 24.139435 -20.560631
v 15.726898 6.011854 -13.351898
v 13.376752 1.205381 -7.148707
v 12.550340 7.518524 -17.560696
v 10.078540 5.912778 -15.992748
v 7.203832 2.327309 -13.124421
v 9.509857 0.845152 -9.470068
v 17.432524 4.460972 -5.293822
v -6.851596 -1.840944 1.503790
v -3.008389 -3.757439 0.651401
v -6.299716 -1.754351 3.328962
v -5.711298 -1.739918 0.192157
v -4.248223 -3.689859 2.190828
v -4.036277 -3.453333 -0.704764
v -12.079005 47.690926 -0.179664
v -7.381083 51.590355 -6.101109
v -12.952149 36.292065 -5.489785
v 13.507557 26.972404 -15.081001
v 7.727054 30.207607 -15.267360
v 13.109299 31.591511 -11.539402
v -5.968682 25.966331 19.700315
v -4.820617 25.087597 21.419456
v -7.230497 24.221657 20.992678
v 14.946876 48.694759 5.959237
v 16.790751 44.034904 3.982275
v 16.072239 43.862747 7.367961
v 7.342106 59.108803 4.772242
v 8.759559 57.789635 6.127912
v 5.432471 59.122433 6.224320
vn -0.6843 0.5180 0.5133
vn 0.2050 0.9434 0.2608
vn -0.4977 0.5964 0.6298
vn -0.4314 0.5751 0.6951
vn 0.7901 0.5267 -0.3136
vn 0.3441 0.8269 0.4448
vn 0.2350 0.5276 0.8164
vn 0.0734 0.5198 0.8511
vn 0.1530 0.2708 0.9504
vn 0.9560 0.2816 -0.0828
vn 0.9692 -0.1330 0.2073
vn 0.9361 0.2801 0.2129
vn 0.5608 0.2542 0.7880
vn 0.6871 0.4893 0.5371
vn 0.9869 -0.0649 0.1476
vn 0.7045 0.1212 0.6993
vn 0.5630 0.2713 0.7807
vn 0.2656 0.2217 0.9383
vn 0.9622 0.2341 -0.1393
vn 0.9677 0.1885 -0.1676
vn 0.9697 0.2074 -0.1288
vn 0.8506 0.0922 0.5176
vn 0.9119 0.3833 -0.1465
vn 0.9129 0.3774 -0.1552
vn 0.9343 0.3499 0.0678
vn 0.8746 0.4404 0.2028
vn 0.8481 0.4328 0.3056
vn 0.7148 0.2632 -0.6479
vn 0.7047 0.1991 -0.6810
vn 0.6755 0.1899 -0.7125
vn 0.5973 0.2656 -0.7567
vn 0.1413 -0.0790 -0.9868
vn 0.5475 -0.0927 -0.8316
vn 0.3527 0.5883 -0.7276
vn 0.7024 0.5081 -0.4985
vn 0.7372 0.4507 -0.5033
vn 0.5981 0.5570 -0.5763
vn 0.2833 0.7140 -0.6403
vn 0.4833 0.5959 -0.6414
vn 0.4591 0.4781 -0.7488
vn -0.8125 0.4829 -0.3266
vn -0.0776 0.6658 -0.7421
vn -0.4688 0.3092 -0.8274
vn -0.2671 0.2253 -0.9370
vn -0.2190 0.5073 -0.8335
vn -0.3494 0.3731 -0.8595
vn -0.6835 0.2024 -0.7013
vn -0.7522 0.4156 -0.5114
vn -0.7363 0.4407 -0.5134
vn -0.8334 0.2846 -0.4738
vn -0.6448 0.2054 -0.7362
vn -0.6161 0.4737 -0.6293
vn -0.6033 0.4484 -0.6595
vn -0.3780 0.7678 -0.5172
vn -0.8343 0.5331 -0.1402
vn -0.9213 0.2947 0.2536
vn -0.6913 0.6803 0.2435
vn -0.6620 0.7392 0.1241
vn -0.9801 -0.0171 0.1979
vn -0.9616 0.2209 0.1629
vn -0.8638 0.4280 -0.2660
vn -0.7773 0.5739 -0.2579
vn -0.8858 0.4640 -0.0066
vn -0.7844 0.0904 0.6137
vn -0.9174 0.2061 0.3404
vn -0.8854 0.2030 0.4181
vn -0.5852 0.5781 0.5686
vn -0.4440 -0.1061 0.8897
vn -0.8297 0.0087 0.5582
vn -0.5881 0.5821 0.5615
vn -0.5852 0.5821 0.5645
vn -0.5157 0.6556 0.5515
vn 0.2659 -0.9622 -0.0586
vn -0.0740 -0.9971 -0.0158
vn -0.0223 -0.9845 0.1740
vn -0.0161 -0.9424 0.3342
vn -0.6319 -0.7413 0.2262
vn -0.5764 -0.7707 0.2716
vn -0.1906 -0.9804 0.0508
vn 0.1509 -0.9429 0.2968
vn -0.1331 -0.3397 0.9311
vn 0.7068 -0.3360 0.6226
vn 0.8282 -0.5099 0.2324
vn 0.8843 0.1359 0.4467
vn 0.4702 0.4472 0.7609
vn 0.6518 -0.7573 0.0407
vn 0.7062 -0.6735 0.2183
vn 0.2175 -0.8573 0.4667
vn -0.1086 -0.3949 0.9123
vn -0.1930 -0.3362 0.9218
vn 0.9265 -0.2850 0.2456
vn 0.9601 0.2726 0.0619
vn 0.8199 -0.0771 0.5673
vn 0.6141 -0.6657 0.4239
vn 0.9923 0.0691 -0.1027
vn 0.9600 0.1886 -0.2068
vn 0.6752 -0.6846 -0.2747
vn 0.5265 -0.8425 -0.1141
vn 0.6941 -0.6340 -0.3411
vn 0.6370 -0.4382 -0.6342
vn 0.2497 -0.8454 -0.4721
vn 0.2302 -0.8480 -0.4773
vn 0.1784 -0.8094 -0.5595
vn 0.4752 -0.7724 -0.4215
vn 0.4460 -0.7493 -0.4896
vn 0.4506 -0.6914 -0.5648
vn 0.4189 -0.6897 -0.5907
vn 0.6499 -0.6168 -0.4440
vn -0.1082 -0.9419 -0.3180
vn -0.1274 -0.8299 -0.5432
vn -0.0870 -0.8177 -0.5690
vn -0.2498 -0.7651 -0.5934
vn -0.6829 -0.3814 -0.6231
vn -0.7087 -0.3825 -0.5928
vn -0.0730 -0.9835 -0.1653
vn -0.2749 -0.8680 -0.4135
vn 0.2602 -0.9418 -0.2130
vn -0.6947 -0.4970 -0.5200
vn -0.4575 -0.8369 -0.3005
vn -0.8830 -0.3349 -0.3290
vn -0.7656 -0.0776 -0.6387
vn -0.7413 -0.5276 -0.4148
vn -0.3384 -0.8642 -0.3724
vn -0.2820 -0.5838 -0.7613
vn -0.6293 -0.1064 -0.7699
vn -0.7610 -0.3629 -0.5377
vn -0.8394 -0.4547 -0.2977
vn -0.9744 0.1406 0.1756
vn -0.7993 -0.2936 -0.5243
vn -0.6664 -0.5753 -0.4743
vn -0.9261 -0.3770 -0.0155
vn -0.8812 -0.0565 0.4693
vn -0.8732 -0.1434 0.4657
vn -0.6691 -0.6354 -0.3854
vn -0.8845 -0.2922 -0.3637
vn -0.7702 -0.5388 0.3414
vn -0.4351 -0.5872 0.6825
vn -0.8855 -0.3387 0.3181
vn -0.8491 -0.1542 0.5053
vn -0.2451 -0.2417 0.9389
vn -0.6438 -0.2569 0.7208
vn -0.7602 -0.4957 0.4199
vn -0.6388 -0.5511 0.5369
vn -0.6666 -0.7290 0.1557
vn -0.2647 -0.5151 0.8152
vn -0.4347 -0.5869 0.6830
vn -0.2405 -0.5436 0.8041
vn -0.1123 -0.1699 0.9790
vn -0.5039 0.5809 0.6393
vn -0.9419 0.2944 0.1618
vn -0.6086 0.7070 0.3602
vn -0.3620 0.7096 0.6045
vn -0.6350 0.4283 0.6429
vn 0.5793 0.1609 0.7991
vn 0.7109 0.0187 0.7031
vn 0.7488 0.1641 0.6421
vn 0.7273 0.2096 0.6535
vn -0.1525 -0.4927 0.8567
vn 0.1832 0.0176 0.9829
vn 0.2636 -0.1672 0.9500
vn 0.4920 0.2768 0.8254
vn 0.4059 0.4502 0.7953
vn 0.0255 -0.1459 -0.9890
vn 0.1964 0.6447 -0.7387
vn -0.1223 0.2624 -0.9572
vn 0.2252 0.4062 -0.8856
vn 0.1887 -0.4806 -0.8564
vn 0.5509 -0.1160 -0.8265
vn 0.3701 -0.0302 -0.9285
vn 0.4601 0.0756 -0.8846
vn 0.5311 0.0765 -0.8438
vn -0.0560 -0.1339 -0.9894
vn -0.7534 0.4797 -0.4498
vn 0.4010 0.3553 -0.8444
vn 0.1800 0.6466 -0.7413
vn -0.2667 0.4749 -0.8386
vn -0.7834 0.4313 -0.4475
vn -0.3431 -0.2929 -0.8925
vn -0.5015 -0.3176 -0.8048
vn -0.4644 -0.3722 -0.8036
vn 0.4016 -0.7230 0.5622
vn 0.8564 -0.3837 -0.3455
vn 0.1859 -0.0420 -0.9817
vn 0.7459 -0.0558 -0.6637
vn -0.4357 -0.4829 -0.7596
vn -0.5388 -0.8228 -0.1806
vn -0.0970 -0.8452 0.5256
vn 0.4971 -0.8004 0.3349
vn -0.6750 -0.7171 0.1738
vn -0.1991 -0.6914 0.6945
vn -0.5038 -0.7111 -0.4904
vn -0.2791 -0.6454 -0.7110
vn 0.3924 -0.7067 -0.5887
vn -0.3688 0.0974 -0.9244
vn -0.9882 0.0043 0.1533
vn -0.7907 0.5527 -0.2633
vn 0.8844 0.3452 -0.3140
vn 0.0809 0.0593 -0.9950
vn -0.2129 0.9769 -0.0194
vn -0.4152 0.7160 0.5612
vn -0.3545 0.6602 0.6622
vn -0.3150 0.7432 0.5903
vn 0.9506 -0.2411 0.1955
vn 0.7780 0.4271 -0.4608
vn 0.5114 0.2799 0.8125
vn 0.7152 0.6953 -0.0712
vn -0.2017 0.9403 -0.2741
vn 0.0402 0.0281 0.9988
vt 0.670500 0.097770
vt 0.119940 0.265120
vt 0.144800 0.082370
vt 0.097870 0.672590
vt 0.663820 0.417900
vt 0.286360 0.673020
vt 0.688870 0.653480
vt 0.866510 0.786340
vt 0.819050 0.170400
vt 0.464760 0.219240
vt 0.872360 0.561240
vt 0.392950 0.667370
vt 0.607260 0.653850
vt 0.230090 0.879750
vt 0.755130 0.860210
vt 0.518690 0.884100
vt 0.623190 0.161210
vt 0.723730 0.321090
vt 0.328770 0.273580
vt 0.919370 0.321090
vt 0.173720 0.991260
vt 0.819930 0.971720
vt 0.396840 0.352560
vt 0.070200 0.497250
vt 0.294210 0.367290
vt 0.503330 0.991260
vt 0.922560 0.991260
vt 0.147770 0.344270
vt 0.434610 0.196380
vt 0.132940 0.955870
vt 0.441640 0.313770
vt 0.217630 0.442310
vt 0.076590 0.324640
vt 0.661660 0.818650
vt 0.064120 0.396800
vt 0.593350 0.890810
vt 0.155070 0.783760
vt 0.189170 0.836590
vt 0.394810 0.077100
vt 0.592480 0.485250
vt 0.186790 0.226380
vt 0.064570 0.712940
vt 0.231540 0.199390
vt 0.630530 0.458250
vt 0.306870 0.065450
vt 0.259230 0.741990
vt 0.241150 0.816510
vt 0.288790 0.139970
vt 0.149130 0.679100
vt 0.213390 0.684660
vt 0.375960 0.152520
vt 0.830050 0.809520
vt 0.277930 0.872910
vt 0.325570 0.196380
vt 0.796370 0.853380
vt 0.317380 0.727020
vt 0.750120 0.707480
vt 0.830410 0.733730
vt 0.892750 0.143730
vt 0.900110 0.809770
vt 0.518660 0.485250
vt 0.934290 0.930880
vt 0.448660 0.930880
vt 0.437940 0.705140
vt 0.989880 0.755510
vt 0.455890 0.755510
vt 0.501530 0.427910
vt 0.917800 0.752430
vt 0.388940 0.697660
vt 0.522450 0.373140
vt 0.571940 0.703630
vt 0.546780 0.767850
vt 0.471950 0.654380
vt 0.538730 0.654550
vt 0.068760 0.230880
vt 0.643310 0.724900
vt 0.619320 0.126730
vt 0.625440 0.686080
vt 0.567050 0.143730
vt 0.755600 0.075380
vt 0.788940 0.326510
vt 0.854160 0.321090
vt 0.780640 0.449600
vt 0.081990 0.008740
vt 0.641490 0.502750
vt 0.568540 0.504840
vt 0.737130 0.380210
vt 0.781430 0.143730
vt 0.846640 0.464090
vt 0.147990 0.027070
vt 0.119200 0.514720
vt 0.906690 0.384780
vt 0.114880 0.612490
vt 0.969710 0.341050
vt 0.165180 0.570030
vt 0.379110 0.293530
vt 0.567500 0.350870
vt 0.193630 0.092010
vt 0.056330 0.643820
vt 0.244650 0.130270
vt 0.622290 0.389140
vt 0.260870 0.644760
vt 0.356100 0.267250
vt 0.455820 0.086590
vt 0.946700 0.314770
vt 0.741210 0.626040
vt 0.322620 0.645570
vt 0.870420 0.161210
vt 0.820980 0.600440
vt 0.854360 0.541400
vt 0.837040 0.226460
vt 0.288790 0.213850
vt 0.879390 0.261370
vt 0.788070 0.225360
vt 0.522540 0.202480
vt 0.566670 0.178220
vt 0.755030 0.267330
vt 0.693380 0.143730
vt 0.460020 0.268710
vt 0.910490 0.610710
vt 0.474960 0.293530
vt 0.358150 0.635530
vt 0.491660 0.311010
vt 0.976340 0.635530
vt 0.560540 0.268050
vt 0.443740 0.610050
vt 0.476350 0.560300
vt 0.593150 0.218300
vt 0.572900 0.603740
vt 0.670500 0.197410
vt 0.553690 0.539410
vt 0.688870 0.366090
vt 0.063390 0.091050
vt 0.009190 0.135630
vt 0.670500 0.629650
vt 0.559750 0.100870
vt 0.119210 0.198270
vt 0.669770 0.057740
vt 0.122910 0.128280
vt 0.873210 0.716240
vt 0.866770 0.641680
vt 0.339460 0.311010
vt 0.115450 0.475020
vt 0.237890 0.317470
vt 0.099420 0.831020
vt 0.203540 0.741730
vt 0.323770 0.095580
vt 0.758100 0.752580
vt 0.276130 0.772110
vt 0.965070 0.099480
vt 0.347560 0.472230
vt 0.869210 0.882180
vt 0.549120 0.443870
vt 0.941160 0.768390
vt 0.415620 0.768390
vt 0.506810 0.698450
vt 0.600830 0.734990
vt 0.830070 0.387050
vt 0.874380 0.132020
vt 0.009190 0.580580
vt 0.933330 0.489420
vt 0.234680 0.067030
vt 0.441640 0.269660
vt 0.541370 0.143730
vt 0.190270 0.615410
vt 0.929740 0.224130
vt 0.688870 0.140160
vt 0.824550 0.263050
vt 0.436790 0.591790
vt 0.553590 0.249790
vt 0.506060 0.601350
vt 0.020170 0.067200
vt 0.612560 0.561220
vt 0.570320 0.074870
vt 0.019760 0.158120
vt 0.568670 0.420960
vt 0.188680 0.162100
vt 0.795120 0.673200
vt 0.460020 0.356770
vt 0.935730 0.681290
vt 0.966020 0.209990
vt 0.302960 0.561050
vt 0.248690 0.520010
vt 0.456990 0.048340
vt 0.947860 0.261610
vt 0.937530 0.174970
vt 0.753870 0.552530
vt 0.339780 0.572070
vt 0.916730 0.188020
vt 0.774670 0.538030
vt 0.798010 0.506900
vt 0.893390 0.211880
vt 0.914270 0.242290
vt 0.490810 0.077290
vt 0.232470 0.548960
vt 0.763050 0.089190
vt 0.772690 0.333600
vt 0.807200 0.326510
vt 0.777460 0.348790
vt 0.821770 0.105540
vt 0.782600 0.322690
vt 0.751580 0.090560
vt 0.796340 0.339320
vt 0.840640 0.090430
vt 0.743730 0.077120
vt 0.798070 0.315230
vt 0.504810 0.874720
vt 0.949700 0.909320
vt 0.453010 0.909320
vt 0.990810 0.779610
vt 0.458360 0.779610
vt 0.318090 0.734140
vt 0.755110 0.714600
vt 0.807200 0.738770
vt 0.915970 0.140930
vt 0.760870 0.752790
vt 0.287100 0.772330
vt 0.962300 0.109910
vt 0.618590 0.093050
vt 0.078500 0.196330
vt 0.629060 0.078740
vt 0.608430 0.082290
vt 0.057880 0.188000
vt 0.412740 0.155790
vt 0.134020 0.915280
vt 0.151320 0.877430
vt 0.394340 0.117940
vt 0.121700 0.875660
vt 0.391960 0.324680
vt 0.404990 0.313400
vt 0.180970 0.474380
vt 0.375270 0.312590
vt 0.151260 0.483890
s 0
usemtl Platonic
f 18/36/1 14/26/1 10/16/1
f 73/142/2 13/23/2 14/25/2
f 14/24/3 18/35/3 73/143/3
f 17/33/4 73/143/4 18/35/4
f 16/30/5 9/14/5 13/21/5
f 118/229/6 120/232/6 119/230/6
f 15/28/7 16/32/7 73/143/7
f 73/143/8 17/33/8 15/28/8
f 1/2/9 15/28/9 17/33/9
f 16/30/10 20/38/10 9/14/10
f 74/145/11 19/37/11 20/38/11
f 116/226/12 115/225/12 117/228/12
f 15/28/13 74/144/13 16/32/13
f 22/42/14 3/4/14 19/37/14
f 19/37/15 74/145/15 22/42/15
f 21/41/16 22/43/16 74/144/16
f 74/144/17 15/28/17 21/41/17
f 1/2/18 21/41/18 15/28/18
f 20/38/19 24/47/19 9/14/19
f 75/146/20 23/46/20 24/47/20
f 24/47/21 20/38/21 75/146/21
f 19/37/22 75/146/22 20/38/22
f 26/50/23 4/6/23 23/46/23
f 23/46/24 75/146/24 26/50/24
f 25/49/25 26/50/25 75/146/25
f 75/146/26 19/37/26 25/49/26
f 3/4/27 25/49/27 19/37/27
f 24/47/28 28/53/28 9/14/28
f 76/147/29 27/51/29 28/54/29
f 28/54/30 24/48/30 76/147/30
f 23/45/31 76/147/31 24/48/31
f 30/58/32 5/8/32 27/52/32
f 27/52/33 76/148/33 30/58/33
f 109/213/34 110/214/34 111/216/34
f 76/149/35 23/46/35 29/56/35
f 4/6/36 29/56/36 23/46/36
f 28/55/37 13/22/37 9/15/37
f 77/151/38 14/25/38 13/23/38
f 13/22/39 28/55/39 77/152/39
f 27/52/40 77/152/40 28/55/40
f 32/63/41 10/16/41 14/26/41
f 14/27/42 77/152/42 32/62/42
f 31/60/43 32/62/43 77/152/43
f 77/152/44 27/52/44 31/60/44
f 5/8/45 31/60/45 27/52/45
f 35/68/46 31/60/46 5/8/46
f 78/154/47 32/62/47 31/60/47
f 31/61/48 35/67/48 78/153/48
f 36/70/49 78/153/49 35/67/49
f 108/211/50 106/207/50 107/209/50
f 32/62/51 78/154/51 34/65/51
f 33/64/52 34/66/52 78/155/52
f 78/155/53 36/69/53 33/64/53
f 7/12/54 33/64/54 36/69/54
f 39/73/55 33/64/55 7/12/55
f 79/156/56 34/66/56 33/64/56
f 33/64/57 39/73/57 79/156/57
f 40/74/58 79/156/58 39/73/58
f 38/72/59 10/16/59 34/66/59
f 34/66/60 79/156/60 38/72/60
f 37/71/61 38/72/61 79/156/61
f 79/156/62 40/74/62 37/71/62
f 8/13/63 37/71/63 40/74/63
f 38/72/64 18/36/64 10/16/64
f 80/157/65 17/34/65 18/36/65
f 18/36/66 38/72/66 80/157/66
f 37/71/67 80/157/67 38/72/67
f 41/75/68 1/2/68 17/33/68
f 17/34/69 80/157/69 41/76/69
f 42/78/70 41/76/70 80/157/70
f 80/157/71 37/71/71 42/78/71
f 8/13/72 42/78/72 37/71/72
f 48/92/73 44/82/73 12/20/73
f 104/203/74 43/81/74 101/198/74
f 44/82/75 48/92/75 81/158/75
f 47/89/76 81/158/76 48/92/76
f 102/199/77 100/197/77 43/81/77
f 43/81/78 104/203/78 102/199/78
f 45/83/79 46/87/79 81/158/79
f 81/158/80 47/89/80 45/83/80
f 2/3/81 45/84/81 47/90/81
f 52/99/82 49/93/82 3/4/82
f 82/160/83 50/95/83 49/93/83
f 49/93/84 52/99/84 82/160/84
f 51/98/85 82/162/85 52/100/85
f 48/92/86 12/20/86 50/94/86
f 50/95/87 82/160/87 48/91/87
f 47/89/88 48/92/88 82/161/88
f 82/162/89 51/98/89 47/90/89
f 2/3/90 47/90/90 51/98/90
f 49/93/91 25/49/91 3/4/91
f 83/165/92 26/50/92 25/49/92
f 25/49/93 49/93/93 83/165/93
f 50/95/94 83/165/94 49/93/94
f 53/102/95 4/6/95 26/50/95
f 26/50/96 83/165/96 53/102/96
f 94/183/97 93/182/97 99/195/97
f 83/163/98 50/96/98 54/103/98
f 12/19/99 54/103/99 50/96/99
f 53/102/100 55/107/100 4/6/100
f 84/166/101 96/189/101 95/186/101
f 95/186/102 93/181/102 84/166/102
f 94/185/103 84/166/103 93/181/103
f 57/111/104 6/9/104 56/108/104
f 96/189/105 84/166/105 97/192/105
f 98/193/106 97/192/106 84/166/106
f 84/166/107 94/185/107 98/193/107
f 12/19/108 58/112/108 54/103/108
f 57/111/109 59/114/109 6/9/109
f 85/168/110 60/117/110 59/114/110
f 59/114/111 57/111/111 85/168/111
f 58/113/112 85/168/112 57/111/112
f 43/80/113 100/196/113 103/202/113
f 103/202/114 105/205/114 43/80/114
f 101/198/115 43/81/115 105/206/115
f 85/168/116 58/113/116 44/82/116
f 12/20/117 44/82/117 58/113/117
f 59/115/118 61/119/118 6/10/118
f 86/170/119 62/121/119 61/119/119
f 61/119/120 59/115/120 86/170/120
f 60/116/121 86/170/121 59/115/121
f 63/126/122 7/12/122 62/122/122
f 62/121/123 86/170/123 63/125/123
f 64/127/124 63/126/124 86/169/124
f 86/170/125 60/116/125 64/128/125
f 11/17/126 64/128/126 60/116/126
f 63/126/127 39/73/127 7/12/127
f 87/171/128 40/74/128 39/73/128
f 39/73/129 63/126/129 87/171/129
f 64/127/130 87/171/130 63/126/130
f 65/129/131 8/13/131 40/74/131
f 40/74/132 87/171/132 65/129/132
f 66/131/133 65/129/133 87/171/133
f 87/171/134 64/127/134 66/131/134
f 11/17/135 66/130/135 64/128/135
f 65/129/136 68/135/136 8/13/136
f 88/172/137 67/133/137 68/134/137
f 68/135/138 65/129/138 88/173/138
f 66/131/139 88/173/139 65/129/139
f 45/84/140 2/3/140 67/133/140
f 67/133/141 88/172/141 45/84/141
f 46/86/142 45/85/142 88/173/142
f 88/173/143 66/131/143 46/86/143
f 11/18/144 46/87/144 66/132/144
f 70/139/145 67/133/145 2/3/145
f 89/175/146 68/134/146 67/133/146
f 67/133/147 70/139/147 89/175/147
f 69/137/148 89/175/148 70/139/148
f 42/78/149 8/13/149 68/135/149
f 68/136/150 89/174/150 42/79/150
f 41/77/151 42/79/151 89/174/151
f 114/222/152 113/221/152 112/219/152
f 1/1/153 41/77/153 69/138/153
f 22/44/154 52/101/154 3/5/154
f 90/176/155 51/97/155 52/101/155
f 52/101/156 22/44/156 90/176/156
f 21/40/157 90/176/157 22/44/157
f 70/139/158 2/3/158 51/98/158
f 51/98/159 90/177/159 70/139/159
f 69/137/160 70/139/160 90/177/160
f 90/177/161 21/41/161 69/137/161
f 1/2/162 69/137/162 21/41/162
f 30/58/163 71/140/163 5/8/163
f 91/178/164 72/141/164 71/140/164
f 71/140/165 30/58/165 91/178/165
f 29/57/166 91/178/166 30/58/166
f 56/109/167 6/11/167 72/141/167
f 72/141/168 91/178/168 56/109/168
f 55/106/169 56/109/169 91/178/169
f 91/178/170 29/57/170 55/106/170
f 4/7/171 55/106/171 29/57/171
f 71/140/172 35/68/172 5/8/172
f 92/179/173 36/70/173 35/67/173
f 35/68/174 71/140/174 92/180/174
f 72/141/175 92/180/175 71/140/175
f 62/122/176 7/12/176 36/69/176
f 36/70/177 92/179/177 62/123/177
f 61/120/178 62/124/178 92/180/178
f 92/180/179 72/141/179 61/120/179
f 6/11/180 61/120/180 72/141/180
f 54/104/181 94/184/181 99/194/181 83/164/181
f 83/165/182 99/195/182 93/182/182 53/102/182
f 55/106/183 95/187/183 96/190/183 56/109/183
f 53/102/184 93/182/184 95/188/184 55/107/184
f 56/109/185 96/190/185 97/191/185 57/110/185
f 57/111/186 97/192/186 98/193/186 58/113/186
f 58/113/187 98/193/187 94/185/187 54/105/187
f 81/158/188 104/203/188 101/198/188 44/82/188
f 11/18/189 100/197/189 102/199/189 46/87/189
f 46/88/190 102/200/190 104/204/190 81/159/190
f 60/117/191 103/201/191 100/197/191 11/18/191
f 85/167/192 105/205/192 103/202/192 60/118/192
f 44/82/193 101/198/193 105/206/193 85/168/193
f 34/65/194 108/210/194 107/208/194 32/62/194
f 10/16/195 106/207/195 108/211/195 34/66/195
f 32/63/196 107/209/196 106/207/196 10/16/196
f 29/56/197 109/212/197 111/217/197 76/149/197
f 30/58/198 110/214/198 109/213/198 29/57/198
f 76/150/199 111/218/199 110/215/199 30/59/199
f 89/174/200 114/222/200 112/219/200 41/77/200
f 69/137/201 113/220/201 114/223/201 89/175/201
f 41/77/202 112/219/202 113/221/202 69/138/202
f 20/38/203 116/226/203 117/228/203 74/145/203
f 16/29/204 115/224/204 116/227/204 20/39/204
f 74/145/205 117/228/205 115/225/205 16/30/205
f 13/23/206 118/229/206 119/230/206 16/31/206
f 73/142/207 120/232/207 118/229/207 13/23/207
f 16/32/208 119/231/208 120/233/208 73/143/208
