# Blender 3.4.0
# www.blender.org
mtllib fridge.mtl
o group1726520313
v 3.045295 109.353600 -24.352123
v 2.898830 108.802025 -21.535856
v 2.901810 112.093094 -21.569553
v 3.105641 107.231255 -23.025887
v -0.178869 107.231392 -23.236530
v -0.379777 108.802055 -21.824152
v -0.236961 109.316505 -24.592529
v -0.376796 112.093109 -21.857849
v -0.440659 92.771271 -22.904333
v 2.846309 92.642807 -22.796286
v 2.922631 92.729965 -24.410231
v -0.365852 92.864685 -24.417913
v -0.460628 93.463928 -20.687691
v 2.813623 93.216316 -20.912041
v 2.791374 90.011154 -21.590679
v -0.494420 89.891861 -21.738050
v 5.928825 43.056465 -21.176222
v 2.637936 43.043789 -21.128819
v 3.178405 42.916332 -23.948151
v 2.651095 39.752731 -21.095144
v 1.074339 39.808357 -22.513906
v 1.060767 43.097687 -22.625433
v 5.941983 39.765411 -21.142548
v 3.154629 39.626179 -23.866306
v -13.383165 39.523209 -22.098080
v -13.525480 42.804455 -22.311386
v -13.444645 42.722923 -23.925411
v -13.295710 39.450008 -23.612038
v -12.682198 39.722839 -19.892981
v -12.944818 42.958443 -20.435366
v -16.152346 42.857285 -21.095325
v -16.257946 39.572372 -20.920223
v -8.433814 112.083969 -21.679085
v -8.433362 108.792885 -21.645258
v -8.373061 109.344498 -24.464695
v -5.142455 108.792854 -21.692551
v -5.239351 107.222229 -23.115829
v -8.530464 107.222153 -23.146460
v -5.142902 112.083939 -21.726376
v -5.082016 109.307350 -24.463923
v -5.002833 92.762100 -22.765511
v -8.288894 92.633690 -22.898598
v -8.246745 92.720871 -24.513805
v -4.966534 92.855522 -24.280460
v -5.145337 93.454742 -20.553391
v -8.394353 93.207199 -21.017054
v -8.322489 90.002045 -21.692200
v -5.034732 89.882690 -21.598408
v 6.276775 58.514641 -21.340050
v 2.985861 58.515820 -21.292759
v 3.525891 58.385941 -24.112061
v 2.985161 55.224751 -21.258953
v 1.408704 55.286934 -22.677748
v 1.408988 58.576298 -22.789442
v 6.276074 55.223557 -21.306248
v 3.488259 55.095928 -24.030088
v -13.049890 55.062683 -22.262463
v -13.178376 58.344486 -22.475935
v -13.097832 58.262535 -24.089962
v -12.962686 54.989029 -23.776424
v -12.348168 55.259476 -20.057348
v -12.597140 58.496132 -20.599903
v -15.805058 58.408440 -21.259979
v -15.924486 55.124023 -21.084713
v 33.383297 -0.755394 -16.412434
v 34.105740 -0.755348 33.850937
v 34.106056 45.211353 33.850876
v 33.383629 45.211311 -16.412464
v -39.584545 -0.754898 -15.363654
v -39.584217 45.211803 -15.363684
v -38.861801 45.211861 34.899643
v -38.862103 -0.754852 34.899696
v 33.384335 149.692261 -16.412561
v 34.106754 149.692291 33.850784
v -38.861080 149.692795 34.899544
v -39.583504 149.692764 -15.363817
v -3.099591 149.692505 -15.888208
v 29.699463 45.119865 -19.988304
v 29.730217 43.148125 -21.519236
v 29.720812 -0.990532 -21.065527
v -3.113801 149.927689 -20.593697
v -1.030400 149.927673 -22.174423
v 29.752916 149.927460 -22.616819
v -39.584110 62.015434 -15.363719
v -35.936874 61.976460 -20.768881
v -35.918159 149.927917 -21.672970
v -35.950264 -0.990082 -20.121639
v -35.940941 42.895206 -20.572760
v 29.734219 61.976017 -21.712769
v -1.049108 61.976238 -21.270336
v 33.383732 62.014927 -16.412498
v 34.106167 62.014977 33.850868
v -38.861675 62.015480 34.899628
v -35.971645 45.120312 -19.044418
v -35.940125 46.715530 -20.612000
v -35.937611 58.560417 -20.733747
v -35.968441 60.160645 -19.199007
v 29.731081 47.165268 -21.560545
v 29.702665 60.158279 -20.142891
v 29.733482 58.485191 -21.676893
v -5.134847 149.927704 -22.115362
v -5.153554 61.976269 -21.211349
v -3.132509 61.976250 -19.689644
vn 0.9987 -0.0004 0.0519
vn -0.0555 -0.6814 0.7298
vn -0.9981 -0.0247 -0.0561
vn 0.0528 0.7075 -0.7047
vn -0.9971 0.0197 0.0731
vn -0.0876 0.0103 0.9961
vn -0.0480 0.0202 0.9986
vn 0.9984 -0.0072 -0.0569
vn 0.0732 -0.0112 -0.9973
vn 0.9933 -0.1073 0.0425
vn -0.9988 0.0073 -0.0489
vn 0.9988 -0.0170 0.0463
vn 0.0495 0.9545 -0.2941
vn 0.9995 -0.0062 0.0320
vn -0.0278 -0.7189 -0.6945
vn 0.0513 -0.2072 0.9770
vn -0.9994 0.0178 -0.0282
vn 0.0575 -0.6698 -0.7403
vn 0.0025 0.0035 -1.0000
vn 0.9955 0.0691 0.0653
vn -0.0328 -0.2817 0.9590
vn -0.0045 0.9989 -0.0460
vn -0.6785 0.0135 0.7345
vn -0.0206 -0.9989 0.0419
vn 0.7047 -0.0136 -0.7094
vn 0.0243 -0.9851 0.1701
vn 0.0144 0.0103 0.9998
vn 0.0241 0.0499 0.9985
vn -0.0117 0.9880 -0.1542
vn -0.0152 -0.0248 -0.9996
vn -0.1114 0.9923 -0.0544
vn 0.0115 -0.9987 0.0490
vn -0.0212 0.9984 -0.0515
vn 0.9532 0.0243 -0.3014
vn -0.0104 0.9978 -0.0658
vn -0.7214 -0.0985 -0.6855
vn -0.2038 0.1457 0.9681
vn 0.0220 -0.9973 0.0695
vn -0.6728 -0.0178 -0.7396
vn -0.0003 -0.0953 -0.9954
vn 0.0650 0.9973 -0.0326
vn -0.2779 0.0600 0.9587
vn -0.9998 -0.0004 -0.0215
vn 0.0019 -0.6814 0.7319
vn 0.9995 -0.0247 0.0172
vn -0.0010 0.7075 -0.7067
vn 0.9891 0.0197 0.1459
vn -0.0253 0.0202 0.9995
vn -0.9915 -0.0072 -0.1299
vn 0.0001 -0.0112 -0.9999
vn -0.9938 -0.1073 -0.0304
vn 0.9997 0.0073 0.0244
vn -0.9995 -0.0170 -0.0270
vn -0.0278 0.9545 -0.2969
vn -0.9991 -0.0062 -0.0413
vn 0.0786 -0.7189 -0.6906
vn -0.1227 -0.2072 0.9706
vn 0.9988 0.0177 0.0451
vn -0.0031 -0.6698 -0.7425
vn 0.0708 0.0035 -0.9975
vn -0.9976 0.0691 -0.0078
vn -0.0376 -0.2817 0.9588
vn -0.0003 0.9989 -0.0461
vn -0.6784 0.0163 0.7345
vn -0.0248 -0.9988 0.0419
vn 0.7046 -0.0166 -0.7094
vn 0.0202 -0.9852 0.1702
vn 0.0243 0.0499 0.9985
vn -0.0075 0.9880 -0.1543
vn -0.0153 -0.0247 -0.9996
vn -0.1072 0.9927 -0.0545
vn 0.0072 -0.9988 0.0490
vn -0.0170 0.9985 -0.0515
vn 0.9533 0.0202 -0.3014
vn -0.0062 0.9978 -0.0659
vn -0.7218 -0.0955 -0.6855
vn -0.2032 0.1466 0.9681
vn 0.0178 -0.9974 0.0696
vn -0.6729 -0.0150 -0.7396
vn -0.0006 -0.0954 -0.9954
vn 0.0692 0.9971 -0.0327
vn -0.2777 0.0613 0.9587
vn 0.9999 -0.0000 -0.0144
vn -0.9999 -0.0000 0.0144
vn -0.0000 -1.0000 -0.0000
vn -0.0000 1.0000 -0.0000
vn 0.7987 0.0072 -0.6017
vn 0.0144 -0.0000 0.9999
vn 0.0014 0.9993 0.0378
vn -0.8483 -0.0026 -0.5296
vn 0.0007 -0.9988 0.0499
vn -0.0144 -0.0103 -0.9998
vn 0.8450 -0.0028 -0.5348
vn -0.8131 -0.0289 -0.5814
vn -0.0087 -0.6530 -0.7573
vn 0.8047 -0.0312 -0.5928
vn -0.8061 0.0067 -0.5917
vn 0.6015 -0.0083 -0.7989
vn -0.0003 0.9993 0.0378
vn -0.6044 -0.0081 -0.7966
vn -0.0110 -0.6419 -0.7667
vn -0.0101 0.6838 -0.7296
vn -0.0128 0.5889 -0.8081
vt 0.005185 0.240998
vt -0.038814 0.063250
vt 0.008038 0.240461
vt 0.048864 0.102342
vt 0.050826 0.097369
vt 0.001481 0.241128
vt 0.005664 0.239209
vt 0.035845 0.054233
vt -0.048202 0.102404
vt 0.001989 0.239347
vt 0.007560 0.240160
vt -0.037219 0.061301
vt -0.049335 0.104198
vt 0.036855 0.055206
vt -0.049252 0.102308
vt 0.007171 0.239101
vt 0.005268 0.239596
vt 0.000646 0.239748
vt 0.035307 0.056656
vt -0.003053 0.239732
vt -0.007970 0.239165
vt -0.047388 0.103320
vt 0.034321 0.055708
vt -0.004369 0.239362
vt -0.046409 0.103537
vt -0.003871 0.241110
vt -0.037205 0.064632
vt -0.008812 0.240531
vt 0.047034 0.103415
vt -0.005535 0.241014
vt -0.006258 0.240324
vt -0.035613 0.062687
vt -0.047542 0.105331
vt 0.000370 0.234998
vt -0.042807 0.095199
vt 0.001179 0.234915
vt 0.003577 0.235366
vt -0.048370 0.167744
vt -0.044631 0.094117
vt -0.003130 0.235362
vt -0.050376 0.167055
vt -0.003315 0.235445
vt -0.001654 0.235894
vt -0.003533 0.236325
vt -0.003719 0.236407
vt 0.051295 0.217607
vt 0.046167 0.087721
vt 0.041501 0.094369
vt 0.000829 0.235829
vt 0.003950 0.236270
vt 0.049230 0.218093
vt 0.003014 0.236384
vt 0.048446 0.212414
vt 0.044289 0.088706
vt 0.002180 0.233802
vt -0.047900 0.166323
vt -0.041090 0.037965
vt 0.001623 0.234384
vt -0.027033 0.025009
vt -0.049968 0.165853
vt -0.002453 0.234514
vt -0.042771 0.036671
vt -0.004502 0.234006
vt 0.050709 0.215151
vt -0.041623 0.034899
vt 0.049821 0.209421
vt -0.026344 0.021974
vt 0.003991 0.233995
vt 0.047760 0.209925
vt -0.025051 0.023656
vt -0.053528 0.201591
vt -0.013600 0.173407
vt -0.027565 0.065316
vt -0.051511 0.202246
vt 0.013273 0.170108
vt -0.025767 0.066443
vt -0.053150 0.203350
vt -0.052427 0.203856
vt -0.014865 0.175585
vt -0.053295 0.193606
vt 0.026892 0.069067
vt 0.029046 0.084343
vt -0.054115 0.204931
vt 0.015125 0.169076
vt 0.052215 0.202623
vt -0.024641 0.064645
vt 0.015748 0.170293
vt 0.051560 0.203822
vt 0.051582 0.191795
vt -0.026677 0.072500
vt 0.013912 0.171356
vt -0.027719 0.074348
vt -0.051719 0.193257
vt -0.050434 0.203041
vt -0.052534 0.204609
vt 0.054225 0.201945
vt -0.015461 0.172390
vt -0.026438 0.063519
vt 0.053117 0.204201
vt -0.016724 0.174563
vt 0.053140 0.192177
vt 0.025770 0.067267
vt 0.052235 0.203684
vt 0.042716 0.194682
vt -0.018481 0.076945
vt -0.038323 0.205382
vt 0.041771 0.206013
vt -0.031259 0.217770
vt -0.019451 0.078831
vt -0.041448 0.205821
vt -0.029413 0.218815
vt -0.041921 0.204665
vt -0.043211 0.197230
vt -0.041826 0.206793
vt -0.042306 0.205634
vt 0.049910 0.151537
vt 0.019664 0.089520
vt 0.016669 0.072711
vt -0.038640 0.206307
vt 0.042136 0.206921
vt 0.051216 0.149865
vt 0.042018 0.205203
vt 0.051267 0.131482
vt 0.018702 0.087629
vt -0.038377 0.203886
vt -0.030507 0.216476
vt -0.008427 0.116684
vt 0.041631 0.202798
vt -0.000231 0.114242
vt -0.028783 0.217713
vt -0.041884 0.203396
vt -0.009616 0.118440
vt -0.040065 0.204469
vt 0.047924 0.149975
vt -0.007970 0.119762
vt 0.047977 0.131609
vt -0.000132 0.117353
vt 0.039656 0.204162
vt 0.049230 0.129897
vt 0.001458 0.115947
vt -0.005898 0.239108
vt -0.030880 0.067645
vt -0.043509 0.107870
vt -0.004011 0.238140
vt 0.029818 0.060959
vt -0.042376 0.106077
vt -0.007293 0.237453
vt -0.003515 0.239924
vt -0.032629 0.069457
vt -0.000761 0.236265
vt 0.042210 0.107365
vt 0.039543 0.109529
vt -0.006838 0.239248
vt 0.031299 0.059440
vt 0.005198 0.237971
vt -0.044169 0.104943
vt 0.032243 0.060429
vt 0.003884 0.238347
vt -0.001158 0.234669
vt -0.042505 0.108573
vt 0.030787 0.061972
vt -0.040764 0.109784
vt 0.000051 0.234871
vt -0.001839 0.238634
vt -0.005962 0.237893
vt 0.007092 0.238925
vt -0.032444 0.066211
vt -0.045303 0.106737
vt 0.004708 0.239721
vt -0.034190 0.068020
vt -0.000388 0.236076
vt 0.043967 0.106177
vt 0.003092 0.239974
vt -0.009272 0.230076
vt -0.037305 0.100833
vt 0.010360 0.234866
vt -0.005942 0.234202
vt -0.046535 0.167746
vt -0.035519 0.101977
vt 0.006477 0.234241
vt -0.044598 0.168611
vt 0.006328 0.233719
vt 0.008737 0.231306
vt 0.006898 0.235195
vt 0.006749 0.234674
vt 0.043333 0.220904
vt 0.032808 0.101196
vt 0.038192 0.097283
vt 0.010770 0.235754
vt -0.006327 0.235102
vt 0.045327 0.220179
vt -0.007246 0.234679
vt 0.046019 0.213254
vt 0.034501 0.099918
vt 0.009287 0.233821
vt -0.045909 0.166386
vt -0.021060 0.070146
vt -0.005807 0.232714
vt -0.018610 0.043889
vt -0.044076 0.167454
vt 0.005450 0.232803
vt -0.019793 0.071847
vt 0.007490 0.232259
vt 0.042478 0.218527
vt -0.018003 0.070727
vt 0.043201 0.211551
vt -0.015588 0.044632
vt -0.008165 0.232267
vt 0.045189 0.210810
vt -0.016513 0.042723
vt -0.053743 0.201172
vt -0.004607 0.178216
vt -0.033078 0.073617
vt -0.051727 0.201831
vt 0.004316 0.174988
vt -0.031285 0.074751
vt -0.052733 0.203311
vt -0.052646 0.203439
vt -0.005868 0.180396
vt -0.053204 0.192153
vt 0.032298 0.077444
vt 0.034168 0.092863
vt -0.053701 0.204890
vt 0.006170 0.173959
vt 0.052198 0.202333
vt -0.030151 0.072958
vt 0.006791 0.175178
vt 0.051545 0.203533
vt 0.051565 0.190150
vt -0.031803 0.081039
vt 0.004953 0.176237
vt -0.032852 0.082883
vt -0.051628 0.191807
vt -0.050800 0.202521
vt -0.052119 0.204571
vt 0.054206 0.201651
vt -0.006470 0.177201
vt -0.031944 0.071824
vt 0.053103 0.203909
vt -0.007728 0.179377
vt 0.053123 0.190528
vt 0.031169 0.075648
vt 0.052514 0.203217
vt 0.042705 0.193056
vt -0.023624 0.085517
vt -0.039601 0.204604
vt 0.042054 0.205565
vt -0.022072 0.222140
vt -0.024602 0.087399
vt -0.041820 0.205318
vt -0.020225 0.223183
vt -0.042137 0.204063
vt -0.043127 0.195797
vt -0.042200 0.206289
vt -0.042525 0.205031
vt 0.043611 0.159065
vt 0.024806 0.098075
vt 0.022090 0.081129
vt -0.039920 0.205529
vt 0.042421 0.206473
vt 0.044916 0.157392
vt 0.042340 0.204527
vt 0.045012 0.139083
vt 0.023837 0.096188
vt -0.039652 0.203108
vt -0.021322 0.220845
vt -0.015087 0.124184
vt 0.041948 0.202123
vt -0.007808 0.120994
vt -0.019597 0.222080
vt -0.042098 0.202794
vt -0.016282 0.125937
vt -0.040281 0.203870
vt 0.041625 0.157504
vt -0.014639 0.127264
vt 0.041721 0.139212
vt -0.007718 0.124105
vt 0.039976 0.203491
vt 0.042974 0.137499
vt -0.006124 0.122704
vt -0.056846 0.204250
vt 0.069034 0.196616
vt -0.038286 0.164648
vt 0.069847 0.193958
vt -0.042491 0.175204
vt 0.059195 0.165746
vt -0.026523 0.029935
vt -0.015931 0.188330
vt -0.042580 0.054833
vt -0.011724 0.177771
vt -0.009524 0.181054
vt -0.030286 0.217376
vt 0.056846 0.204250
vt 0.024220 0.210900
vt 0.025145 0.208585
vt 0.058870 0.134208
vt 0.035998 0.157118
vt 0.030286 0.217376
vt 0.035814 0.152812
vt -0.003053 0.080326
vt 0.015931 0.188330
vt 0.042491 0.175204
vt 0.014381 0.180030
vt 0.013005 0.055428
vt -0.069034 0.196616
vt -0.069491 0.201765
vt 0.046887 0.216665
vt 0.030085 0.247212
vt -0.059195 0.165746
vt 0.044440 0.218166
vt -0.079079 0.111425
vt -0.014381 0.180030
vt -0.039552 0.136918
vt -0.044440 0.218166
vt -0.024220 0.210900
vt -0.018676 0.204366
vt -0.030085 0.247212
vt -0.024668 0.215783
vt -0.046627 0.203758
vt -0.047114 0.208764
vt -0.013222 0.180678
vt 0.059735 0.180268
vt -0.011062 0.183933
vt -0.060589 0.031539
vt -0.014709 0.180809
vt 0.040567 0.057170
vt -0.061988 0.032334
vt -0.040111 0.168002
vt 0.068589 0.197564
vt 0.025361 0.033124
vt 0.047844 0.193061
vt -0.048053 0.211651
vt 0.015628 0.176664
vt -0.049586 0.212233
vt 0.060576 0.125941
vt 0.017029 0.177602
vt -0.068520 0.206298
vt 0.077351 0.115342
vt 0.045000 0.220896
vt 0.026681 0.170660
vt 0.027717 0.164091
vt 0.020576 0.222175
vt 0.029207 0.174016
vt 0.030439 0.167291
vt 0.011266 0.090039
vt 0.021966 0.199764
vt -0.015995 0.208230
vt -0.028183 0.218912
vt 0.041565 0.137953
vt 0.028357 0.210729
vt -0.010425 0.055735
vt 0.061410 0.137115
vt 0.004693 0.079643
vt 0.039548 0.155062
vt -0.040407 0.068752
vt 0.047053 0.067427
vt -0.005781 0.195696
vt -0.001746 0.189622
vt 0.062374 0.187147
vt 0.030278 0.078026
vt 0.048268 0.130295
vt 0.043433 0.193061
vt -0.003947 0.191979
vt 0.000141 0.185930
vt -0.020576 0.222175
vt -0.006222 0.193129
vt -0.048450 0.063934
vt -0.008923 0.089427
vt 0.006222 0.193129
vt 0.038170 0.159583
vt 0.019316 0.192847
vt 0.037923 0.155338
vt -0.038897 0.067890
vt 0.037908 0.160893
vt 0.019776 0.194210
vt 0.006009 0.081724
vt 0.032111 0.165859
vt -0.034356 0.089801
vt 0.010089 0.088177
vt 0.030809 0.165888
vt 0.021472 0.198298
vt -0.033327 0.088809
vt 0.060262 0.181843
vt -0.010231 0.185253
vt 0.041951 0.059358
vt -0.002447 0.188369
vt 0.061879 0.185680
vt -0.063448 0.059065
vt -0.003746 0.188592
vt -0.064500 0.060082
vt 0.045850 0.065525
vt 0.047029 0.194474
vt -0.047121 0.212989
vt 0.058340 0.127354
vt -0.001898 0.165838
vt 0.028041 0.079439
vt 0.040907 0.193850
vt -0.001083 0.164426
vt 0.046867 0.129357
vt 0.041946 0.192853
s 0
usemtl mat15.004
f 3/11/1 2/7/1 1/1/1
f 2/8/2 6/23/2 5/19/2 4/14/2
f 6/24/3 8/31/3 7/26/3 5/20/3
f 8/32/4 3/12/4 1/2/4 7/27/4
f 9/34/5 5/21/5 7/28/5
f 8/33/6 6/25/6 2/9/6 3/13/6
f 9/35/7 10/39/7 4/15/7 5/22/7
f 11/43/8 1/3/8 4/16/8
f 12/48/9 7/29/9 1/4/9
f 13/55/10 9/36/10 12/49/10
f 7/30/11 12/50/11 9/37/11
f 4/17/12 10/40/12 11/44/12
f 13/56/13 14/60/13 10/41/13 9/38/13
f 14/61/14 15/63/14 11/45/14 10/42/14
f 15/64/15 12/51/15 11/46/15
f 15/65/16 14/62/16 13/57/16
f 12/52/17 16/68/17 13/58/17
f 15/66/18 16/69/18 12/53/18
f 1/5/19 11/47/19 12/54/19
f 2/10/20 4/18/20 1/6/20
f 13/59/21 16/70/21 15/67/21
f 19/78/22 18/74/22 17/71/22
f 22/91/23 21/87/23 20/84/23 18/75/23
f 21/88/24 24/99/24 23/96/24 20/85/24
f 24/100/25 19/79/25 17/72/25 23/97/25
f 24/101/26 21/89/26 25/104/26
f 17/73/27 18/76/27 20/86/27 23/98/27
f 21/90/28 22/92/28 26/109/28 25/105/28
f 22/93/29 19/80/29 27/113/29
f 19/81/30 24/102/30 28/118/30
f 28/119/31 25/106/31 29/125/31
f 25/107/32 28/120/32 24/103/32
f 27/114/33 26/110/33 22/94/33
f 25/108/34 26/111/34 30/130/34 29/126/34
f 26/112/35 27/115/35 31/133/35 30/131/35
f 27/116/36 28/121/36 31/134/36
f 29/127/37 30/132/37 31/135/37
f 29/128/38 32/138/38 28/122/38
f 28/123/39 32/139/39 31/136/39
f 28/124/40 27/117/40 19/82/40
f 19/83/41 22/95/41 18/77/41
f 31/137/42 32/140/42 29/129/42
f 35/148/43 34/144/43 33/141/43
f 38/161/44 37/157/44 36/154/44 34/145/44
f 37/158/45 40/169/45 39/166/45 36/155/45
f 40/170/46 35/149/46 33/142/46 39/167/46
f 40/171/47 37/159/47 41/174/47
f 33/143/27 34/146/27 36/156/27 39/168/27
f 37/160/48 38/162/48 42/179/48 41/175/48
f 38/163/49 35/150/49 43/183/49
f 35/151/50 40/172/50 44/188/50
f 44/189/51 41/176/51 45/195/51
f 41/177/52 44/190/52 40/173/52
f 43/184/53 42/180/53 38/164/53
f 41/178/54 42/181/54 46/200/54 45/196/54
f 42/182/55 43/185/55 47/203/55 46/201/55
f 43/186/56 44/191/56 47/204/56
f 45/197/57 46/202/57 47/205/57
f 45/198/58 48/208/58 44/192/58
f 44/193/59 48/209/59 47/206/59
f 44/194/60 43/187/60 35/152/60
f 35/153/61 38/165/61 34/147/61
f 47/207/62 48/210/62 45/199/62
f 51/218/63 50/214/63 49/211/63
f 54/231/64 53/227/64 52/224/64 50/215/64
f 53/228/65 56/239/65 55/236/65 52/225/65
f 56/240/66 51/219/66 49/212/66 55/237/66
f 56/241/67 53/229/67 57/244/67
f 49/213/27 50/216/27 52/226/27 55/238/27
f 53/230/68 54/232/68 58/249/68 57/245/68
f 54/233/69 51/220/69 59/253/69
f 51/221/70 56/242/70 60/258/70
f 60/259/71 57/246/71 61/265/71
f 57/247/72 60/260/72 56/243/72
f 59/254/73 58/250/73 54/234/73
f 57/248/74 58/251/74 62/270/74 61/266/74
f 58/252/75 59/255/75 63/273/75 62/271/75
f 59/256/76 60/261/76 63/274/76
f 61/267/77 62/272/77 63/275/77
f 61/268/78 64/278/78 60/262/78
f 60/263/79 64/279/79 63/276/79
f 60/264/80 59/257/80 51/222/80
f 51/223/81 54/235/81 50/217/81
f 63/277/82 64/280/82 61/269/82
usemtl mat16.004
f 68/292/83 67/288/83 66/285/83 65/281/83
f 72/302/84 71/301/84 70/298/84 69/293/84
f 66/286/85 72/303/85 69/294/85 65/282/85
f 77/319/86 76/315/86 75/312/86 74/309/86 73/305/86
f 80/328/87 79/325/87 78/321/87 68/290/87 65/283/87
f 67/289/88 71/300/88 72/304/88 66/287/88
f 83/337/89 82/334/89 81/332/89 77/320/89 73/306/89
f 86/347/90 85/343/90 84/340/90 76/316/90
f 87/350/91 80/329/91 65/284/91 69/295/91
f 87/351/92 88/353/92 79/326/92 80/330/92
f 90/360/92 82/335/92 83/338/92 89/356/92
f 89/357/93 83/339/93 73/307/93 91/363/93
f 91/365/83 73/308/83 74/310/83 92/366/83
f 92/367/88 74/311/88 75/313/88 93/368/88
f 93/369/84 75/314/84 76/317/84 84/342/84
f 85/344/94 97/380/94 96/377/94 95/374/94 94/370/94 70/297/94 84/341/94
f 94/371/95 95/375/95 98/383/95 78/322/95
f 78/323/96 98/384/96 100/389/96 99/386/96 89/358/96 91/364/96 68/291/96
f 68/292/83 91/365/83 92/366/83 67/288/83
f 67/289/88 92/367/88 93/368/88 71/300/88
f 71/301/84 93/369/84 84/342/84 70/298/84
f 94/372/97 88/354/97 87/352/97 69/296/97 70/299/97
f 103/398/98 102/395/98 101/392/98 81/331/98
f 81/332/99 101/393/99 86/348/99 76/318/99 77/320/99
f 90/361/100 103/399/100 81/333/100 82/336/100
f 102/396/92 85/345/92 86/349/92 101/394/92
f 97/381/101 85/346/101 102/397/101 103/400/101 90/362/101 89/359/101 99/387/101
f 96/378/102 97/382/102 99/388/102 100/390/102
f 88/355/103 94/373/103 78/324/103 79/327/103
f 95/376/92 96/379/92 100/391/92 98/385/92
