# Blender 3.5.1
# www.blender.org
mtllib tree01.mtl
o Cube
v 1.000000 1.000000 -1.000000
v 1.000000 -1.000000 -1.000000
v 1.000000 1.000000 1.000000
v 1.000000 -1.000000 1.000000
v -1.000000 1.000000 -1.000000
v -1.000000 -1.000000 -1.000000
v -1.000000 1.000000 1.000000
v -1.000000 -1.000000 1.000000
vn -0.0000 1.0000 -0.0000
vn -0.0000 -0.0000 1.0000
vn -1.0000 -0.0000 -0.0000
vn -0.0000 -1.0000 -0.0000
vn 1.0000 -0.0000 -0.0000
vn -0.0000 -0.0000 -1.0000
vt 0.625000 0.500000
vt 0.375000 0.500000
vt 0.625000 0.750000
vt 0.375000 0.750000
vt 0.875000 0.500000
vt 0.625000 0.250000
vt 0.125000 0.500000
vt 0.375000 0.250000
vt 0.875000 0.750000
vt 0.625000 1.000000
vt 0.625000 0.000000
vt 0.375000 1.000000
vt 0.375000 0.000000
vt 0.125000 0.750000
s 0
usemtl Material
f 1/1/1 5/5/1 7/9/1 3/3/1
f 4/4/2 3/3/2 7/10/2 8/12/2
f 8/13/3 7/11/3 5/6/3 6/8/3
f 6/7/4 2/2/4 4/4/4 8/14/4
f 2/2/5 1/1/5 3/3/5 4/4/5
f 6/8/6 5/6/6 1/1/6 2/2/6
o tree01
v -23.305254 85.302109 -27.359314
v -26.166708 71.172638 -0.883920
v -2.645017 101.817291 -12.551461
v 15.427292 88.414703 -8.309255
v 5.916246 64.095879 -20.468468
v 1.639325 62.971577 1.726371
v -18.926456 48.161526 -13.239254
v -36.995987 61.497841 -17.485167
v 3.517067 88.217812 -29.672836
v -18.796772 63.943771 -31.074398
v -4.778821 81.033867 5.788837
v 9.893085 96.198723 4.834491
v 10.658826 84.137474 -7.720723
v -12.231892 90.956352 0.042016
v -16.808954 77.176193 9.901984
v 2.263149 74.129768 20.604633
v 1.878544 63.237972 7.106827
v 23.149952 69.375877 11.454489
v 22.968115 84.745483 8.768076
v -6.597677 91.445549 16.512396
v -2.916687 74.690193 -0.838869
v 17.980490 68.445465 -4.348792
v 22.695726 61.938778 15.067856
v 20.336393 47.980556 13.392112
v 10.832946 60.616558 0.275085
v -2.595408 60.411831 5.351159
v 1.055473 61.656342 22.996712
v -0.855820 47.948730 19.861010
v 11.269640 49.625687 33.673122
v 24.685934 49.823669 28.636349
v 8.227531 69.773788 10.870914
v 17.209723 62.015484 27.822725
v 13.615587 40.556988 23.782557
v 6.156418 49.932030 10.254657
v -18.104164 51.574398 7.731483
v -19.453579 39.700634 6.184412
v -3.529863 46.159584 3.677457
v -2.784612 46.086498 -8.435681
v -16.706572 51.437336 -11.701187
v -17.071661 39.467041 -12.392022
v -30.926746 44.964859 -7.788245
v -31.698492 45.040546 4.301844
v -8.234453 55.797970 -1.796139
v -25.624588 54.126839 -0.910556
v -26.632389 35.539349 -2.756814
v -11.885609 39.427235 -3.617683
v -1.605892 42.167545 2.030279
v -2.121941 41.492455 3.711674
v -0.727578 40.400131 4.353336
v 0.650234 40.400131 3.068510
v 0.107406 41.492455 1.632782
v 7.677458 49.867550 11.985487
v 7.334286 49.418613 13.103614
v 8.261538 48.692219 13.530320
v 9.177783 48.692219 12.675910
v 8.816802 49.418613 11.721151
v 11.272498 63.718079 15.840708
v 10.929326 63.269146 16.958834
v 11.856578 62.542751 17.385540
v 12.772822 62.542751 16.531132
v 12.411841 63.269146 15.576372
v -7.892394 83.501312 -2.779425
v -7.564775 83.652794 -3.890289
v -8.750108 83.104744 -3.465976
v -3.382264 -0.000000 -2.197929
v -8.750108 83.104744 -2.092874
v 0.798444 0.000000 3.556323
v -1.318351 25.878199 -0.000002
v -2.196104 25.203108 -1.524123
v -3.616338 24.110785 -0.941960
v -3.616338 24.110785 0.941957
v -2.196104 25.203108 1.524119
v -6.832200 83.991508 -2.779426
v -7.564775 83.652794 -1.668562
v -1.886876 24.994492 2.585445
v 3.608883 53.846802 4.415975
v 2.369115 53.846802 2.709580
v -14.930359 33.578201 -0.000003
v -15.514066 33.129269 -1.013543
v -16.458521 32.402874 -0.626405
v -16.458521 32.402874 0.626400
v -15.514066 33.129269 1.013538
v -20.201702 47.428734 -0.000004
v -20.785406 46.979797 -1.013544
v -21.729862 46.253403 -0.626406
v -21.729862 46.253403 0.626399
v -20.785406 46.979797 1.013537
v 0.363127 53.846802 3.361365
v 3.382264 0.000000 0.000000
v 0.798444 -0.000000 -3.556323
v 0.363127 53.846802 5.470584
v -3.382264 0.000000 2.197929
v 2.369115 53.846802 6.122369
v -0.008439 24.994492 -0.000002
v -1.886876 24.994492 -2.585449
v -4.926251 24.994492 -1.597896
v -4.926251 24.994492 1.597892
vn -0.6097 0.7927 -0.0000
vn 0.4158 0.7927 0.4459
vn -0.1011 0.1497 -0.9835
vn -0.1373 0.7510 -0.6459
vn 0.6099 0.7127 -0.3466
vn 0.8696 -0.0982 -0.4839
vn 0.3781 -0.2970 -0.8768
vn 0.2772 -0.7205 -0.6356
vn -0.3678 -0.6951 -0.6177
vn -0.5994 0.0127 -0.8004
vn 0.8928 -0.4245 0.1505
vn -0.4781 0.6082 0.6336
vn 0.2858 0.6174 0.7329
vn 0.5680 0.0168 0.8229
vn -0.1695 -0.2732 0.9469
vn -0.2295 -0.5155 0.8256
vn -0.5411 -0.5236 0.6581
vn 0.5520 -0.8314 0.0642
vn -0.8087 0.5508 0.2065
vn -0.7117 0.6488 0.2693
vn 0.3273 0.6189 0.7141
vn -0.2412 0.9690 0.0537
vn -0.8377 0.4732 0.2725
vn -0.4946 -0.0480 0.8678
vn 0.3127 0.3670 0.8761
vn 0.4265 0.1606 0.8901
vn 0.0965 -0.7759 0.6234
vn -0.4329 -0.6955 0.5735
vn -0.2474 -0.3125 -0.9171
vn -0.3585 -0.1554 -0.9205
vn -0.6153 -0.3132 -0.7234
vn -0.5465 -0.6197 -0.5634
vn -0.3074 -0.6260 -0.7167
vn 0.2839 -0.9582 -0.0365
vn 0.9503 -0.0427 -0.3083
vn 0.7747 0.2353 -0.5870
vn 0.6495 0.5677 -0.5058
vn -0.0205 0.7204 -0.6933
vn 0.4279 0.8860 0.1787
vn 0.5213 0.7049 -0.4810
vn -0.2628 0.6971 -0.6671
vn -0.6771 0.7305 0.0886
vn -0.1627 0.8617 0.4806
vn -0.2565 0.5105 0.8207
vn 0.3354 0.2660 0.9038
vn 0.7922 0.5083 0.3377
vn 0.0146 -0.8180 -0.5750
vn 0.0626 -0.6957 -0.7156
vn -0.2782 -0.5878 -0.7597
vn -0.5203 -0.6777 -0.5197
vn -0.3235 -0.8518 -0.4120
vn -0.4961 -0.6954 0.5199
vn 0.2671 -0.6779 0.6849
vn 0.6641 -0.7410 -0.0999
vn 0.9574 -0.1309 -0.2573
vn 0.7813 -0.0575 -0.6214
vn -0.9764 0.0914 0.1956
vn -0.7478 -0.0472 0.6622
vn -0.0728 0.9375 0.3402
vn 0.4127 0.5937 0.6907
vn 0.8856 0.4616 0.0517
vn 0.4024 0.6597 -0.6347
vn -0.1068 0.9405 -0.3227
vn -0.4662 0.6876 -0.5566
vn -0.8449 0.5319 -0.0573
vn -0.4648 0.6534 0.5975
vn 0.2606 -0.9383 0.2274
vn 0.3990 -0.8548 0.3319
vn 0.6044 -0.7956 0.0420
vn 0.4663 -0.8394 -0.2794
vn 0.2440 -0.9583 -0.1486
vn -0.4539 -0.5717 -0.6835
vn -0.8973 -0.4380 -0.0545
vn -0.3904 -0.6740 0.6271
vn -0.1956 -0.1048 0.9751
vn 0.2128 -0.1500 0.9655
vn 0.2457 0.0484 -0.9681
vn -0.2917 0.0640 -0.9544
vn -0.3090 0.0037 0.9510
vn 0.8042 0.1091 0.5843
vn 0.8090 -0.0115 -0.5877
vn -0.3018 0.2150 -0.9288
vn -0.9836 0.1803 -0.0000
vn -0.3082 -0.0708 0.9487
vn 0.7946 -0.1880 0.5773
vn 0.8032 0.1397 -0.5791
vn -0.2599 -0.2930 -0.9201
vn -0.9548 -0.2974 -0.0000
vn -0.3372 0.1335 0.9319
vn 0.7322 0.3887 0.5593
vn 0.8223 -0.2580 -0.5072
vn 0.1276 0.7234 -0.6785
vn -0.6858 0.7234 0.0800
vn -0.5633 -0.2580 0.7849
vn 0.3699 -0.8401 0.3967
vn 0.8974 -0.1143 -0.4262
vn -0.1055 0.2920 -0.9506
vn -0.9409 0.2920 -0.1716
vn -0.4878 -0.1143 0.8654
vn 0.6374 -0.3557 0.6835
vn -0.1899 -0.2580 0.9473
vn 0.4092 0.7234 0.5561
vn 0.4092 0.7234 -0.5561
vn -0.1899 -0.2580 -0.9473
vn -0.5424 -0.8401 -0.0000
vn -0.3003 -0.1143 0.9470
vn 0.7672 0.2920 0.5711
vn 0.7672 0.2920 -0.5711
vn -0.3003 -0.1143 -0.9470
vn -0.9346 -0.3557 -0.0000
vn -0.4197 0.9077 -0.0000
vn 0.8042 0.1091 -0.5843
vn -0.3090 0.0037 -0.9510
vn -0.9981 -0.0617 -0.0000
vt 0.376059 0.753888
vt 0.287153 0.700078
vt 0.302182 0.804373
vt 0.274532 0.748044
vt 0.331140 0.664499
vt 0.255924 0.659216
vt 0.329920 0.614934
vt 0.357595 0.671021
vt 0.360848 0.754580
vt 0.390008 0.674721
vt 0.262963 0.727751
vt 0.625056 0.847628
vt 0.671136 0.803361
vt 0.642645 0.828387
vt 0.606457 0.777811
vt 0.567176 0.766631
vt 0.616716 0.726656
vt 0.600759 0.749183
vt 0.610619 0.805592
vt 0.582196 0.830183
vt 0.645878 0.768687
vt 0.658760 0.745768
vt 0.229116 0.662157
vt 0.235266 0.610928
vt 0.283408 0.657304
vt 0.264778 0.656553
vt 0.200016 0.661121
vt 0.211524 0.610811
vt 0.160831 0.616966
vt 0.179317 0.617693
vt 0.244519 0.690913
vt 0.182303 0.662439
vt 0.197131 0.583682
vt 0.246781 0.618090
vt 0.614423 0.683848
vt 0.620101 0.640269
vt 0.629302 0.663975
vt 0.673760 0.663707
vt 0.685745 0.683345
vt 0.688280 0.639412
vt 0.671383 0.659590
vt 0.627011 0.659868
vt 0.649391 0.699350
vt 0.646141 0.693216
vt 0.652917 0.624997
vt 0.656077 0.639266
vt 0.251276 0.252435
vt 0.245551 0.250137
vt 0.243367 0.246418
vt 0.247741 0.246418
vt 0.252630 0.250137
vt 0.217381 0.278652
vt 0.213574 0.277124
vt 0.212121 0.274650
vt 0.215030 0.274650
vt 0.218281 0.277124
vt 0.204254 0.325810
vt 0.200447 0.324282
vt 0.198995 0.321809
vt 0.201904 0.321809
vt 0.205154 0.324282
vt 0.267652 0.393168
vt 0.271434 0.393684
vt 0.269990 0.391818
vt 0.265672 0.108863
vt 0.265315 0.391818
vt 0.246080 0.108863
vt 0.258189 0.196973
vt 0.263378 0.194675
vt 0.261396 0.190956
vt 0.254982 0.190956
vt 0.253000 0.194675
vt 0.267652 0.394837
vt 0.263870 0.393684
vt 0.249386 0.193964
vt 0.243153 0.292201
vt 0.248963 0.292201
vt 0.258189 0.223190
vt 0.261640 0.221662
vt 0.260322 0.219188
vt 0.256056 0.219188
vt 0.254738 0.221662
vt 0.258189 0.270348
vt 0.261640 0.268820
vt 0.260322 0.266347
vt 0.256056 0.266347
vt 0.254738 0.268820
vt 0.246744 0.292201
vt 0.258189 0.108863
vt 0.270297 0.108863
vt 0.239563 0.292201
vt 0.250705 0.108863
vt 0.237343 0.292201
vt 0.258189 0.193964
vt 0.266992 0.193964
vt 0.263629 0.193964
vt 0.252748 0.193964
s 0
usemtl Mat
f 95/101/7 91/97/7 92/98/7 93/99/7 94/100/7
f 69/75/8 65/71/8 66/72/8 67/73/8 68/74/8
f 9/15/9 17/23/9 18/24/9
f 9/15/10 11/17/10 17/23/10
f 11/17/11 12/18/11 17/23/11
f 12/18/12 13/19/12 17/23/12
f 13/19/13 18/24/13 17/23/13
f 15/21/14 18/24/14 13/19/14
f 16/22/15 18/24/15 15/21/15
f 16/22/16 9/15/16 18/24/16
f 12/18/17 14/20/17 13/19/17
f 10/16/18 19/25/18 11/17/18
f 19/25/19 12/18/19 11/17/19
f 19/25/20 14/20/20 12/18/20
f 19/25/21 10/16/21 14/20/21
f 10/16/22 15/21/22 14/20/22
f 10/16/23 16/22/23 15/21/23
f 14/20/24 15/21/24 13/19/24
f 9/15/25 16/22/25 10/16/25
f 9/15/26 10/16/26 11/17/26
f 20/26/27 28/34/27 27/33/27
f 20/26/28 22/28/28 28/34/28
f 22/28/29 23/29/29 28/34/29
f 23/29/30 24/30/30 28/34/30
f 24/30/31 27/33/31 28/34/31
f 26/32/32 27/33/32 24/30/32
f 25/31/33 26/32/33 24/30/33
f 23/29/34 25/31/34 24/30/34
f 21/27/35 30/36/35 29/35/35
f 21/27/36 29/35/36 22/28/36
f 29/35/37 23/29/37 22/28/37
f 29/35/38 25/31/38 23/29/38
f 29/35/39 30/36/39 25/31/39
f 30/36/40 26/32/40 25/31/40
f 30/36/41 27/33/41 26/32/41
f 30/36/42 21/27/42 27/33/42
f 20/26/43 27/33/43 21/27/43
f 20/26/44 21/27/44 22/28/44
f 31/37/45 39/45/45 40/46/45
f 31/37/46 33/39/46 39/45/46
f 33/39/47 34/40/47 39/45/47
f 34/40/48 35/41/48 39/45/48
f 35/41/49 40/46/49 39/45/49
f 37/43/50 40/46/50 35/41/50
f 38/44/51 40/46/51 37/43/51
f 38/44/52 31/37/52 40/46/52
f 32/38/53 41/47/53 42/48/53
f 32/38/54 42/48/54 33/39/54
f 42/48/55 34/40/55 33/39/55
f 42/48/56 36/42/56 34/40/56
f 42/48/57 41/47/57 36/42/57
f 41/47/58 37/43/58 36/42/58
f 41/47/59 38/44/59 37/43/59
f 41/47/60 32/38/60 38/44/60
f 31/37/61 38/44/61 32/38/61
f 31/37/62 32/38/62 33/39/62
f 34/40/63 36/42/63 35/41/63
f 36/42/64 37/43/64 35/41/64
f 43/49/65 51/57/65 52/58/65
f 43/49/66 45/51/66 51/57/66
f 45/51/67 46/52/67 51/57/67
f 46/52/68 47/53/68 51/57/68
f 47/53/69 52/58/69 51/57/69
f 49/55/70 52/58/70 47/53/70
f 50/56/71 52/58/71 49/55/71
f 50/56/72 43/49/72 52/58/72
f 44/50/73 53/59/73 54/60/73
f 44/50/74 54/60/74 45/51/74
f 54/60/75 46/52/75 45/51/75
f 54/60/76 48/54/76 46/52/76
f 54/60/77 53/59/77 48/54/77
f 53/59/78 49/55/78 48/54/78
f 53/59/79 50/56/79 49/55/79
f 53/59/80 44/50/80 50/56/80
f 43/49/81 50/56/81 44/50/81
f 43/49/82 44/50/82 45/51/82
f 46/52/83 48/54/83 47/53/83
f 48/54/84 49/55/84 47/53/84
f 75/81/85 83/89/85 105/111/85 100/106/85
f 97/103/86 102/108/86 83/89/86 75/81/86
f 103/109/87 85/91/87 84/90/87 102/108/87
f 104/110/88 96/102/88 85/91/88 103/109/88
f 105/111/89 99/105/89 96/102/89 104/110/89
f 83/89/90 101/107/90 99/105/90 105/111/90
f 102/108/91 84/90/91 101/107/91 83/89/91
f 85/91/92 71/77/92 81/87/92 84/90/92
f 96/102/93 72/78/93 71/77/93 85/91/93
f 99/105/94 74/80/94 72/78/94 96/102/94
f 101/107/95 82/88/95 74/80/95 99/105/95
f 84/90/96 81/87/96 82/88/96 101/107/96
f 59/65/97 64/70/97 63/69/97 58/64/97
f 55/61/98 60/66/98 64/70/98 59/65/98
f 56/62/99 61/67/99 60/66/99 55/61/99
f 57/63/100 62/68/100 61/67/100 56/62/100
f 58/64/101 63/69/101 62/68/101 57/63/101
f 64/70/102 69/75/102 68/74/102 63/69/102
f 60/66/103 65/71/103 69/75/103 64/70/103
f 61/67/104 66/72/104 65/71/104 60/66/104
f 62/68/105 67/73/105 66/72/105 61/67/105
f 63/69/106 68/74/106 67/73/106 62/68/106
f 80/86/107 90/96/107 89/95/107 79/85/107
f 76/82/108 86/92/108 90/96/108 80/86/108
f 77/83/109 87/93/109 86/92/109 76/82/109
f 78/84/110 88/94/110 87/93/110 77/83/110
f 79/85/111 89/95/111 88/94/111 78/84/111
f 90/96/112 95/101/112 94/100/112 89/95/112
f 86/92/113 91/97/113 95/101/113 90/96/113
f 87/93/114 92/98/114 91/97/114 86/92/114
f 88/94/115 93/99/115 92/98/115 87/93/115
f 89/95/116 94/100/116 93/99/116 88/94/116
f 71/77/117 70/76/117 81/87/117
f 72/78/117 70/76/117 71/77/117
f 74/80/117 70/76/117 72/78/117
f 82/88/117 70/76/117 74/80/117
f 81/87/117 70/76/117 82/88/117
f 98/104/118 103/109/118 102/108/118 97/103/118
f 73/79/119 104/110/119 103/109/119 98/104/119
f 100/106/120 105/111/120 104/110/120 73/79/120
